<?xml version="1.0" standalone="no"?>
<!DOCTYPE svg PUBLIC "-//W3C//DTD SVG 20010904//EN"
 "http://www.w3.org/TR/2001/REC-SVG-20010904/DTD/svg10.dtd">
<svg version="1.0" xmlns="http://www.w3.org/2000/svg"
 width="16.000000pt" height="16.000000pt" viewBox="0 0 16.000000 16.000000"
 preserveAspectRatio="xMidYMid meet">
<metadata>
Created by potrace 1.11, written by Peter Selinger 2001-2013
</metadata>
<g transform="translate(0.000000,16.000000) scale(0.003125,-0.003125)"
fill="#000000" stroke="none">
<path d="M2735 3959 c-293 -27 -683 -162 -786 -272 -54 -58 -584 -166 -963
-197 -71 -5 -142 -10 -157 -10 l-29 0 0 -110 0 -110 49 0 c122 0 450 43 739
96 106 20 195 34 198 31 8 -8 -46 -217 -73 -281 -13 -32 -42 -87 -64 -121 -72
-115 -44 -197 91 -259 107 -49 205 -45 338 15 143 64 296 205 352 326 17 37
39 83 48 102 34 69 149 122 220 102 17 -5 329 -147 695 -315 434 -201 673
-316 690 -334 56 -58 70 -137 38 -207 -34 -76 -122 -125 -198 -110 -18 3 -278
109 -577 235 -367 155 -556 230 -580 230 -64 0 -101 -62 -72 -118 19 -36 -11
-22 596 -277 564 -237 561 -235 568 -332 3 -49 0 -64 -20 -93 -27 -41 -80 -70
-126 -70 -20 0 -221 79 -519 205 -267 113 -499 205 -514 205 -34 0 -76 -36
-84 -70 -3 -15 2 -37 13 -55 17 -27 68 -51 408 -194 492 -208 477 -200 503
-254 27 -55 26 -82 -1 -137 -27 -51 -74 -80 -131 -80 -27 0 -152 48 -418 160
-227 95 -394 160 -413 160 -35 0 -70 -26 -81 -60 -9 -28 11 -75 39 -93 11 -8
131 -60 266 -117 135 -56 247 -104 249 -106 2 -2 4 -21 3 -41 -2 -43 -25 -78
-72 -111 -55 -37 -94 -30 -271 50 l-159 72 -30 53 c-52 91 -147 135 -250 113
-46 -9 -61 -9 -91 4 -31 13 -37 21 -43 56 -27 172 -205 262 -365 185 -76 -36
-91 -30 -91 32 0 99 -71 195 -169 228 -79 27 -154 15 -228 -36 -23 -16 -44
-29 -47 -29 -3 0 -65 28 -138 61 -73 34 -166 77 -205 95 l-73 33 0 -122 0
-123 155 -68 154 -68 -35 -69 c-58 -116 -56 -190 9 -285 67 -100 203 -134 315
-78 28 14 63 39 76 55 32 37 37 37 25 -3 -24 -85 -3 -170 58 -238 97 -108 250
-112 368 -9 29 25 37 29 31 14 -5 -11 -11 -44 -14 -73 -16 -178 176 -305 337
-222 40 20 95 77 113 116 18 39 25 28 20 -35 -4 -50 0 -67 23 -110 68 -125
228 -154 330 -60 50 46 117 166 125 224 5 38 7 40 50 47 113 19 212 102 251
208 l21 57 51 -20 c157 -62 338 10 418 165 15 29 24 67 27 121 l5 77 36 0 c81
0 208 86 252 171 15 31 31 42 91 67 75 31 112 43 186 62 l42 11 0 734 0 734
-32 5 c-18 3 -67 10 -108 17 -220 33 -393 92 -764 263 -364 168 -492 203 -681
185z"/>
<path d="M120 3638 c-46 -13 -98 -63 -110 -108 -15 -52 -13 -1477 1 -1521 19
-55 65 -96 121 -108 27 -6 112 -11 188 -11 76 0 161 5 188 11 59 12 105 56
121 114 15 56 15 1454 0 1510 -15 54 -61 101 -115 114 -53 13 -346 13 -394 -1z"/>
<path d="M4599 3638 c-47 -12 -98 -66 -110 -114 -11 -51 -11 -1457 0 -1508 13
-52 63 -101 117 -115 51 -13 333 -14 388 -2 49 12 100 61 115 110 14 49 16
1469 1 1521 -13 46 -65 95 -115 109 -49 13 -346 13 -396 -1z"/>
</g>
</svg>
