<?xml version="1.0" encoding="utf-8"?>
<!-- Generator: Adobe Illustrator 19.1.0, SVG Export Plug-In . SVG Version: 6.00 Build 0)  -->
<svg version="1.1" id="Layer_1" xmlns="http://www.w3.org/2000/svg" xmlns:xlink="http://www.w3.org/1999/xlink" x="0px" y="0px"
	 viewBox="0 0 32 32" style="enable-background:new 0 0 32 32;" xml:space="preserve">
<style type="text/css">
	.st0{fill:#3D5A98;}
	.st1{fill:#FFFFFF;}
</style>
<path id="Blue_1_" class="st0" d="M23.1,24c0.5,0,0.9-0.4,0.9-0.9V8.9C24,8.4,23.6,8,23.1,8H8.9C8.4,8,8,8.4,8,8.9v14.2
	C8,23.6,8.4,24,8.9,24H23.1z"/>
<path id="f" class="st1" d="M19,24v-6.2h2.1l0.3-2.4H19v-1.5c0-0.7,0.2-1.2,1.2-1.2h1.3v-2.2c-0.2,0-1-0.1-1.9-0.1
	c-1.8,0-3.1,1.1-3.1,3.2v1.8h-2.1v2.4h2.1V24H19z"/>
</svg>
