<?xml version="1.0" encoding="utf-8"?>
<!-- Generator: Adobe Illustrator 19.1.0, SVG Export Plug-In . SVG Version: 6.00 Build 0)  -->
<svg version="1.1" id="Layer_1" xmlns="http://www.w3.org/2000/svg" xmlns:xlink="http://www.w3.org/1999/xlink" x="0px" y="0px"
	 viewBox="0 0 32 32" enable-background="new 0 0 32 32" xml:space="preserve">
<path fill="#1DA1F2" d="M13,22.5c6,0,9.3-5,9.3-9.3c0-0.1,0-0.3,0-0.4c0.6-0.5,1.2-1,1.6-1.7c-0.6,0.3-1.2,0.4-1.9,0.5
	c0.7-0.4,1.2-1.1,1.4-1.8c-0.6,0.4-1.3,0.7-2.1,0.8c-1.2-1.3-3.3-1.4-4.6-0.1c-0.9,0.8-1.2,2-0.9,3.1c-2.6-0.1-5.1-1.4-6.8-3.4
	c-0.9,1.5-0.4,3.4,1,4.4c-0.5,0-1-0.2-1.5-0.4c0,0,0,0,0,0c0,1.6,1.1,2.9,2.6,3.2c-0.5,0.1-1,0.2-1.5,0.1c0.4,1.3,1.7,2.3,3.1,2.3
	c-1.2,0.9-2.6,1.4-4.1,1.4c-0.3,0-0.5,0-0.8,0C9.5,22,11.2,22.5,13,22.5"/>
</svg>
